<?xml version="1.0" encoding="iso-8859-1"?>
<!-- Generator: Adobe Illustrator 19.0.0, SVG Export Plug-In . SVG Version: 6.00 Build 0)  -->
<svg xmlns="http://www.w3.org/2000/svg" xmlns:xlink="http://www.w3.org/1999/xlink" version="1.1" id="Capa_1" x="0px" y="0px" viewBox="0 0 512 512" style="enable-background:new 0 0 512 512;" xml:space="preserve" width="512px" height="512px">
<g>
	<g>
		<path d="M454.925,57.09c-76.099-76.099-199.641-76.099-275.74,0c-57.24,57.241-71.373,141.506-42.415,212.102l-21.217,21.217    c-13.825,13.825-16.746,34.48-8.781,51.202L13.19,435.194c-17.585,17.583-17.588,46.046,0,63.633    c17.543,17.542,46.088,17.543,63.632,0l93.583-93.583c6.112,2.912,12.748,4.377,19.387,4.377c11.523,0,23.045-4.385,31.816-13.158    l21.164-21.166c68.992,28.351,153.693,15.993,212.154-42.468C531.024,256.732,531.024,133.188,454.925,57.09z M55.61,477.615    c-5.848,5.847-15.362,5.847-21.211,0c-5.848-5.848-5.848-15.363,0-21.212l49.337-49.337l21.211,21.211L55.61,477.615z     M126.158,407.068l-21.211-21.211l21.211-21.211l21.212,21.211L126.158,407.068z M200.397,375.252    c-5.849,5.849-15.362,5.847-21.212,0l-42.421-42.421c-5.848-5.848-5.848-15.363-0.001-21.212l14.318-14.318    c7.795,12.641,17.156,24.58,28.104,35.528c10.85,10.85,22.767,20.249,35.507,28.126L200.397,375.252z M433.714,311.619    c-64.26,64.259-168.824,64.494-233.32,0c-64.326-64.326-64.326-168.993,0-233.319c64.377-64.376,168.944-64.375,233.32,0    C498.089,142.674,498.09,247.245,433.714,311.619z" fill="#FFFFFF"/>
	</g>
</g>
<g>
	<g>
		<path d="M412.505,99.511c-52.682-52.683-138.215-52.683-190.897,0c-52.684,52.683-52.684,138.214,0,190.896    c52.682,52.683,138.215,52.683,190.897,0C465.186,237.728,465.188,152.194,412.505,99.511z M391.294,269.198    c-40.96,40.96-107.518,40.958-148.476,0c-40.934-40.934-40.934-107.541,0-148.476c40.933-40.933,107.541-40.936,148.476,0    C432.252,161.681,432.252,228.239,391.294,269.198z" fill="#FFFFFF"/>
	</g>
</g>
<g>
</g>
<g>
</g>
<g>
</g>
<g>
</g>
<g>
</g>
<g>
</g>
<g>
</g>
<g>
</g>
<g>
</g>
<g>
</g>
<g>
</g>
<g>
</g>
<g>
</g>
<g>
</g>
<g>
</g>
</svg>
